[Header]
FileType HTR
DataType HTRS
FileVersion 1
NumSegments 22
NumFrames 4
DataFrameRate 24
EulerRotationOrder ZYX
CalibrationUnits mm
RotationUnits Degrees
GlobalAxisofGravity Y
BoneLengthAxis Y
ScaleFactor 1.0
[SegmentNames&Hierarchy]
reference	GLOBAL
Hips	reference
Spine	Hips
Spine1	Spine
Neck	Spine1
Head	Neck
LeftShoulder	Spine1
LeftArm	LeftShoulder
LeftForeArm	LeftArm
LeftHand	LeftForeArm
RightShoulder	Spine1
RightArm	RightShoulder
RightForeArm	RightArm
RightHand	RightForeArm
LeftUpLeg	Hips
LeftLeg	LeftUpLeg
LeftFoot	LeftLeg
LeftToeBase	LeftFoot
RightUpLeg	Hips
RightLeg	RightUpLeg
RightFoot	RightLeg
RightToeBase	RightFoot
[BasePosition]
reference	0	0	0	0	0	0	1
Hips	0	0	0	0	0	0	1
Spine	0	0	0	0	-0	90	1
Spine1	0	0	0	0	0	0	1
Neck	0	0	0	-7.352430803	-7.352430803	90	1
Head	0	0	0	0	-0	90	1
LeftShoulder	0	0	0	0	0	0	1
LeftArm	0	0	0	0	0	0	1
LeftForeArm	0	0	0	0	0	0	1
LeftHand	0	0	0	0	0	0	1
RightShoulder	0	0	0	0	-0	180	1
RightArm	0	0	0	0	-0	180	1
RightForeArm	0	0	0	0	-0	180	1
RightHand	0	0	0	0	-0	180	1
LeftUpLeg	0	0	0	0	-0	-90	1
LeftLeg	0	0	0	0	-0	-90	1
LeftFoot	0	0	0	66.57150701	-66.57150701	-90	1
LeftToeBase	0	0	0	0	-90	0	1
RightUpLeg	0	0	0	0	-0	-90	1
RightLeg	0	0	0	0	-0	-90	1
RightFoot	0	0	0	66.57150701	-66.57150701	-90	1
RightToeBase	0	0	0	0	-90	0	1
[reference]
10	0	0	0	0	-0	0	1.0
11	0	0	0	0	-0	0	1.0
12	0	0	0	0	-0	0	1.0
13	0	0	0	0	-0	0	1.0
[Hips]
10	5.374959946	8.829719543	0.8458899856	-12.71031952	-86.25511169	14.07371044	1.0
11	5.374959946	8.829719543	0.8458899856	-11.66872406	-86.29705811	13.08402443	1.0
12	5.374959946	8.829719543	0.8458899856	-10.24515057	-86.5982132	11.91467667	1.0
13	5.374959946	8.829719543	0.8458899856	-10.92581272	-86.95039368	13.09257317	1.0
[Spine]
10	0	0.7478299737	0	-12.93119717	-0.1602872908	-91.00079346	1.0
11	0	0.7478299737	0	-12.880476	-0.2266962528	-90.89318848	1.0
12	0	0.7478299737	0	-13.02275276	-0.1368259639	-90.69858551	1.0
13	0	0.7478299737	0	-13.22920895	0.1199539378	-90.61620331	1.0
[Spine1]
10	0	2.049309969	0	11.60970116	0.07242296636	-0.9229205251	1.0
11	0	2.049309969	0	11.4024229	0.03967270628	-0.9098598361	1.0
12	0	2.049309969	0	11.12095451	0.05352476239	-0.7767554522	1.0
13	0	2.049309969	0	10.60486984	0.1370091885	-0.7902113795	1.0
[Neck]
10	0	2.231709957	0	2.861720085	7.234395027	-89.45318604	1.0
11	0	2.231709957	0	3.293525696	7.546771049	-89.4178009	1.0
12	0	2.231709957	0	3.669466972	7.913849831	-89.4874115	1.0
13	0	2.231709957	0	3.952831507	8.595607758	-89.59083557	1.0
[Head]
10	0	1.413589954	0.1823999882	-10.77590942	-0.1099308431	-88.85500336	1.0
11	0	1.413589954	0.1823999882	-10.70904446	0.2158515751	-89.03397369	1.0
12	0	1.413589954	0.1823999882	-10.30603981	0.5803228021	-89.12743378	1.0
13	0	1.413589954	0.1823999882	-9.867045403	1.263179898	-89.33340454	1.0
[LeftShoulder]
10	0.3649300039	1.825889945	-0.04271000251	-10.83545685	-7.531208992	0.5619980693	1.0
11	0.3649300039	1.825889945	-0.04271000251	-10.71384907	-7.56394434	0.4850672781	1.0
12	0.3649300039	1.825889945	-0.04271000251	-10.77505779	-7.347751141	0.4378627539	1.0
13	0.3649300039	1.825889945	-0.04271000251	-10.6950407	-7.133290291	0.7141148448	1.0
[LeftArm]
10	1.24003005	0	0	42.35267639	9.041203499	-79.40650177	1.0
11	1.24003005	0	0	41.92889404	9.13175106	-79.28368378	1.0
12	1.24003005	0	0	41.5062561	9.393111229	-79.16294098	1.0
13	1.24003005	0	0	40.76840973	9.568459511	-79.25325012	1.0
[LeftForeArm]
10	2.847419977	0	0	-12.03117561	-13.45701218	-3.488069057	1.0
11	2.847419977	0	0	-12.09636211	-13.64567471	-3.501873732	1.0
12	2.847419977	0	0	-11.99867249	-13.95076561	-3.603447914	1.0
13	2.847419977	0	0	-11.89737511	-14.12692928	-3.725553751	1.0
[LeftHand]
10	2.258270025	0	0	-12.34143829	-5.282460213	-2.196088791	1.0
11	2.258270025	0	0	-12.40575409	-5.254611492	-2.389551401	1.0
12	2.258270025	0	0	-12.31949329	-5.344210625	-2.573919535	1.0
13	2.258270025	0	0	-12.23609066	-5.512307644	-2.555045843	1.0
[RightShoulder]
10	-0.3646599948	1.825889945	-0.04271000251	-8.603444099	8.76061821	-180.0966797	1.0
11	-0.3646599948	1.825889945	-0.04271000251	-8.636217117	8.743209839	-180.1781769	1.0
12	-0.3646599948	1.825889945	-0.04271000251	-8.656936646	8.775723457	-180.3005066	1.0
13	-0.3646599948	1.825889945	-0.04271000251	-8.538881302	8.844189644	-180.4012909	1.0
[RightArm]
10	-1.24003005	0	0	40.17443848	-5.698822021	-99.14283752	1.0
11	-1.24003005	0	0	39.97428513	-5.821634769	-99.08348846	1.0
12	-1.24003005	0	0	39.46134949	-6.02773428	-99.00874329	1.0
13	-1.24003005	0	0	40.11019516	-6.339163303	-98.78929138	1.0
[RightForeArm]
10	-2.847419977	0	0	0.2307798415	12.9037323	179.0679321	1.0
11	-2.847419977	0	0	0.2910153568	13.01418686	179.1026917	1.0
12	-2.847419977	0	0	0.4568865299	13.160676	179.240448	1.0
13	-2.847419977	0	0	-0.09332784265	13.32582378	178.8815155	1.0
[RightHand]
10	-2.258270025	0	0	0.04219114035	6.236605644	174.611908	1.0
11	-2.258270025	0	0	0.09532895684	6.286824226	174.5797729	1.0
12	-2.258270025	0	0	0.2450511009	6.30185318	174.5696259	1.0
13	-2.258270025	0	0	-0.2603899837	6.476943493	174.7507935	1.0
[LeftUpLeg]
10	0.9119900465	0	0	4.904326916	-6.100823402	93.25469208	1.0
11	0.9119900465	0	0	4.903478146	-6.306269646	93.38619232	1.0
12	0.9119900465	0	0	4.295506954	-6.199372292	93.66033173	1.0
13	0.9119900465	0	0	2.198246717	-6.495415211	93.83720398	1.0
[LeftLeg]
10	0	-4.371409893	0	3.655653954	-4.332503796	90.16324615	1.0
11	0	-4.371409893	0	3.663667679	-4.434835434	90.10949707	1.0
12	0	-4.371409893	0	4.6533041	-4.279872417	90.07932281	1.0
13	0	-4.371409893	0	8.239679337	-3.594205618	89.75868225	1.0
[LeftFoot]
10	0	-3.918009996	0	-85.67881775	104.3604813	-45.91683197	1.0
11	0	-3.918009996	0	-83.93595123	104.0700455	-43.81027603	1.0
12	0	-3.918009996	0	-83.77330017	103.1993484	-42.76859665	1.0
13	0	-3.918009996	0	-85.27682495	102.2434845	-42.87910461	1.0
[LeftToeBase]
10	0	-0.5927900076	1.367989898	0	0	0	1.0
11	0	-0.5927900076	1.367989898	0	0	0	1.0
12	0	-0.5927900076	1.367989898	0	0	0	1.0
13	0	-0.5927900076	1.367989898	0	0	0	1.0
[RightUpLeg]
10	-0.9119900465	0	0	6.163715363	-9.242530823	93.04432678	1.0
11	-0.9119900465	0	0	5.933628559	-8.607215881	93.21961975	1.0
12	-0.9119900465	0	0	5.246479034	-7.882268429	93.65605164	1.0
13	-0.9119900465	0	0	4.466670513	-6.685266972	93.87836456	1.0
[RightLeg]
10	0	-4.371409893	0	2.334089279	-3.664389849	89.84799194	1.0
11	0	-4.371409893	0	2.699461222	-3.613054276	89.80963135	1.0
12	0	-4.371409893	0	3.626302242	-3.255055904	89.42150879	1.0
13	0	-4.371409893	0	4.424262524	-2.930286407	89.35488892	1.0
[RightFoot]
10	0	-3.918009996	0	43.99337769	66.80511475	81.54692078	1.0
11	0	-3.918009996	0	42.40348053	66.10210419	80.25190735	1.0
12	0	-3.918009996	0	40.35561371	65.50569153	78.97268677	1.0
13	0	-3.918009996	0	38.03450775	65.32366943	77.40979004	1.0
[RightToeBase]
10	0	-0.5927900076	1.367989898	0	0	0	1.0
11	0	-0.5927900076	1.367989898	0	0	0	1.0
12	0	-0.5927900076	1.367989898	0	0	0	1.0
13	0	-0.5927900076	1.367989898	0	0	0	1.0
[EndOfFile]
